<svg id="visual" viewBox="0 0 1920 1080" width="1920" height="1080" xmlns="http://www.w3.org/2000/svg" xmlns:xlink="http://www.w3.org/1999/xlink" version="1.1"><path d="M0 33L64 33C128 33 256 33 384 36.7C512 40.3 640 47.7 768 51.3C896 55 1024 55 1152 55C1280 55 1408 55 1536 51.3C1664 47.7 1792 40.3 1856 36.7L1920 33L1920 0L1856 0C1792 0 1664 0 1536 0C1408 0 1280 0 1152 0C1024 0 896 0 768 0C640 0 512 0 384 0C256 0 128 0 64 0L0 0Z" fill="#001122"></path><path d="M0 87L64 88.8C128 90.7 256 94.3 384 96.2C512 98 640 98 768 98C896 98 1024 98 1152 101.7C1280 105.3 1408 112.7 1536 112.7C1664 112.7 1792 105.3 1856 101.7L1920 98L1920 31L1856 34.7C1792 38.3 1664 45.7 1536 49.3C1408 53 1280 53 1152 53C1024 53 896 53 768 49.3C640 45.7 512 38.3 384 34.7C256 31 128 31 64 31L0 31Z" fill="#061830"></path><path d="M0 271L64 278.2C128 285.3 256 299.7 384 310.5C512 321.3 640 328.7 768 321.5C896 314.3 1024 292.7 1152 290.8C1280 289 1408 307 1536 310.7C1664 314.3 1792 303.7 1856 298.3L1920 293L1920 96L1856 99.7C1792 103.3 1664 110.7 1536 110.7C1408 110.7 1280 103.3 1152 99.7C1024 96 896 96 768 96C640 96 512 96 384 94.2C256 92.3 128 88.7 64 86.8L0 85Z" fill="#111e3d"></path><path d="M0 390L64 390C128 390 256 390 384 395.3C512 400.7 640 411.3 768 404.2C896 397 1024 372 1152 370.2C1280 368.3 1408 389.7 1536 395C1664 400.3 1792 389.7 1856 384.3L1920 379L1920 291L1856 296.3C1792 301.7 1664 312.3 1536 308.7C1408 305 1280 287 1152 288.8C1024 290.7 896 312.3 768 319.5C640 326.7 512 319.3 384 308.5C256 297.7 128 283.3 64 276.2L0 269Z" fill="#20234a"></path><path d="M0 433L64 433C128 433 256 433 384 438.3C512 443.7 640 454.3 768 445.3C896 436.3 1024 407.7 1152 406C1280 404.3 1408 429.7 1536 436.8C1664 444 1792 433 1856 427.5L1920 422L1920 377L1856 382.3C1792 387.7 1664 398.3 1536 393C1408 387.7 1280 366.3 1152 368.2C1024 370 896 395 768 402.2C640 409.3 512 398.7 384 393.3C256 388 128 388 64 388L0 388Z" fill="#312756"></path><path d="M0 476L64 474.2C128 472.3 256 468.7 384 472.3C512 476 640 487 768 479.8C896 472.7 1024 447.3 1152 445.5C1280 443.7 1408 465.3 1536 470.8C1664 476.3 1792 465.7 1856 460.3L1920 455L1920 420L1856 425.5C1792 431 1664 442 1536 434.8C1408 427.7 1280 402.3 1152 404C1024 405.7 896 434.3 768 443.3C640 452.3 512 441.7 384 436.3C256 431 128 431 64 431L0 431Z" fill="#452a60"></path><path d="M0 606L64 604.2C128 602.3 256 598.7 384 596.8C512 595 640 595 768 584.2C896 573.3 1024 551.7 1152 553.5C1280 555.3 1408 580.7 1536 589.7C1664 598.7 1792 591.3 1856 587.7L1920 584L1920 453L1856 458.3C1792 463.7 1664 474.3 1536 468.8C1408 463.3 1280 441.7 1152 443.5C1024 445.3 896 470.7 768 477.8C640 485 512 474 384 470.3C256 466.7 128 470.3 64 472.2L0 474Z" fill="#5a2c68"></path><path d="M0 660L64 661.8C128 663.7 256 667.3 384 667.3C512 667.3 640 663.7 768 647.3C896 631 1024 602 1152 605.5C1280 609 1408 645 1536 661.3C1664 677.7 1792 674.3 1856 672.7L1920 671L1920 582L1856 585.7C1792 589.3 1664 596.7 1536 587.7C1408 578.7 1280 553.3 1152 551.5C1024 549.7 896 571.3 768 582.2C640 593 512 593 384 594.8C256 596.7 128 600.3 64 602.2L0 604Z" fill="#6f2b6d"></path><path d="M0 714L64 714C128 714 256 714 384 714C512 714 640 714 768 701.3C896 688.7 1024 663.3 1152 668.7C1280 674 1408 710 1536 722.7C1664 735.3 1792 724.7 1856 719.3L1920 714L1920 669L1856 670.7C1792 672.3 1664 675.7 1536 659.3C1408 643 1280 607 1152 603.5C1024 600 896 629 768 645.3C640 661.7 512 665.3 384 665.3C256 665.3 128 661.7 64 659.8L0 658Z" fill="#862a70"></path><path d="M0 822L64 816.5C128 811 256 800 384 794.5C512 789 640 789 768 778.3C896 767.7 1024 746.3 1152 751.8C1280 757.3 1408 789.7 1536 800.3C1664 811 1792 800 1856 794.5L1920 789L1920 712L1856 717.3C1792 722.7 1664 733.3 1536 720.7C1408 708 1280 672 1152 666.7C1024 661.3 896 686.7 768 699.3C640 712 512 712 384 712C256 712 128 712 64 712L0 712Z" fill="#9c2770"></path><path d="M0 876L64 870.5C128 865 256 854 384 846.8C512 839.7 640 836.3 768 829.2C896 822 1024 811 1152 816.3C1280 821.7 1408 843.3 1536 848.8C1664 854.3 1792 843.7 1856 838.3L1920 833L1920 787L1856 792.5C1792 798 1664 809 1536 798.3C1408 787.7 1280 755.3 1152 749.8C1024 744.3 896 765.7 768 776.3C640 787 512 787 384 792.5C256 798 128 809 64 814.5L0 820Z" fill="#b2246d"></path><path d="M0 1081L64 1081C128 1081 256 1081 384 1081C512 1081 640 1081 768 1081C896 1081 1024 1081 1152 1081C1280 1081 1408 1081 1536 1081C1664 1081 1792 1081 1856 1081L1920 1081L1920 831L1856 836.3C1792 841.7 1664 852.3 1536 846.8C1408 841.3 1280 819.7 1152 814.3C1024 809 896 820 768 827.2C640 834.3 512 837.7 384 844.8C256 852 128 863 64 868.5L0 874Z" fill="#c62368"></path></svg>